# xmcd
#
# Track frame offsets:
#	150
#	64842
#	72618
#	116241
#	155775
#	219983
#	241345
#
# Disc length: 3554 seconds
#
# Revision: 1
# Processed by: cddbd v1.5.2PL0 Copyright (c) Steve Scherf et al.
# Submitted via: audiograbber 1.83.01
#
DISCID=6c0de007
DTITLE=Grateful Dead - 74-09-14 Olympiahalle, Munich, Germany
DYEAR=1900
DGENRE=
TTITLE0=Truckin'
TTITLE1=Mind Left Body Jam
TTITLE2=Wharf Rat
TTITLE3=Sugar Magnolia
TTITLE4=Eyes Of The World
TTITLE5=One More Saturday Night
TTITLE6=US Blues
EXTD=
EXTT0=
EXTT1=
EXTT2=
EXTT3=
EXTT4=
EXTT5=
EXTT6=
PLAYORDER=
